<svg viewBox="0 0 125 20" xmlns="http://www.w3.org/2000/svg" aria-labelledby="wuzzuf-logo" class="css-1hbwp7i"><path fill="#0055D9" d="M23.724.001h4.906L22.583 20H18.17L14.315 7.96 10.489 20H6.046L0 .001h4.936L8.793 12.32 12.587 0h3.61l3.671 12.319L23.724 0zm9.147 17.552c-1.604-1.63-2.406-3.823-2.406-6.577V.001h4.689v11.036c0 1.54.432 2.714 1.296 3.524.864.81 2.046 1.215 3.548 1.215 1.48 0 2.648-.405 3.502-1.215.853-.81 1.28-1.985 1.28-3.524V0h4.689v10.975c0 2.754-.792 4.947-2.376 6.577C45.51 19.184 43.145 20 39.998 20s-5.523-.815-7.127-2.446zm18.416-.694L62.456 3.95H51.565V.001h16.69v3.17L57.15 16.052h11.106V20H51.287v-3.14zm18.803 0L81.258 3.95h-10.89V.001h16.69v3.17l-11.106 12.88h11.106v3.948H70.09v-3.14zm21.226.694c-1.605-1.63-2.407-3.823-2.407-6.577V.001h4.69v11.036c0 1.54.432 2.714 1.295 3.524.864.81 2.047 1.215 3.548 1.215 1.481 0 2.648-.405 3.502-1.215.853-.81 1.28-1.985 1.28-3.524V0h4.69v10.975c0 2.754-.793 4.947-2.376 6.577-1.584 1.631-3.949 2.446-7.096 2.446-3.147 0-5.522-.815-7.126-2.446zm23.279-5.733V20h-4.69V0H125l-1.08 3.982h-9.325V8.18h7.959l-.99 3.64h-6.97z"></path></svg>